<svg xmlns="http://www.w3.org/2000/svg" xmlns:xlink="http://www.w3.org/1999/xlink" width="96" height="96" viewBox="0 0 25.4 25.4" xmlns:v="https://vecta.io/nano"><path d="M0 0h25.4v25.4H0z" fill="#202020"/><g fill="#2c2c2c" transform="matrix(1.333333 0 0 1.333257 -.000666 .00006)"><path d="M19.05-6.35a6.35 6.35 0 0 0-4.49 1.86A6.35 6.35 0 0 0 12.7 0a6.35 6.35 0 0 0 10.84 4.49A6.35 6.35 0 0 0 25.4 0a6.35 6.35 0 0 0-1.86-4.49 6.35 6.35 0 0 0-4.49-1.86zm0 .794c1.474 0 2.887.585 3.929 1.627S24.606-1.474 24.606 0s-.585 2.887-1.627 3.929-2.455 1.627-3.929 1.627-2.887-.585-3.929-1.627S13.494 1.474 13.494 0s.585-2.887 1.627-3.929 2.455-1.627 3.929-1.627zm0 .794c-1.263 0-2.474.502-3.368 1.395S14.288-1.263 14.288 0s.502 2.474 1.395 3.368a4.76 4.76 0 0 0 3.368 1.395c1.263 0 2.474-.502 3.368-1.395A4.76 4.76 0 0 0 23.813 0c0-1.263-.502-2.474-1.395-3.368a4.76 4.76 0 0 0-3.368-1.395zm0 .794A3.97 3.97 0 0 1 23.019 0a3.97 3.97 0 0 1-1.162 2.806A3.97 3.97 0 0 1 15.081 0a3.97 3.97 0 0 1 1.162-2.806 3.97 3.97 0 0 1 2.806-1.162zm0 .793c-1.754 0-3.175 1.421-3.175 3.175s1.421 3.175 3.175 3.175S22.225 1.754 22.225 0s-1.421-3.175-3.175-3.175zm0 .794A2.38 2.38 0 0 1 21.431 0a2.38 2.38 0 0 1-.697 1.684 2.38 2.38 0 0 1-3.368 0A2.38 2.38 0 0 1 16.669 0a2.38 2.38 0 0 1 .697-1.684 2.38 2.38 0 0 1 1.684-.697zm0-5.556A7.94 7.94 0 0 0 11.113 0a7.94 7.94 0 0 0 2.325 5.613 7.94 7.94 0 0 0 11.226 0A7.94 7.94 0 0 0 26.988 0a7.94 7.94 0 0 0-2.325-5.613 7.94 7.94 0 0 0-5.613-2.325zm0 .794c1.895 0 3.712.753 5.051 2.092S26.194-1.895 26.194 0s-.753 3.712-2.092 5.051-3.157 2.092-5.051 2.092S15.339 6.39 14 5.051 11.906 1.895 11.906 0s.753-3.712 2.092-5.051 3.157-2.092 5.051-2.092z"/><use xlink:href="#A"/><path d="M19.05 14.288c-1.263 0-2.474.502-3.368 1.395a4.76 4.76 0 0 0-1.395 3.368c0 1.263.502 2.474 1.395 3.368a4.76 4.76 0 0 0 3.368 1.395c1.263 0 2.474-.502 3.368-1.395a4.76 4.76 0 0 0 1.395-3.368c0-1.263-.502-2.474-1.395-3.368a4.76 4.76 0 0 0-3.368-1.395zm0 .794a3.97 3.97 0 0 1 3.969 3.969 3.97 3.97 0 0 1-3.969 3.969 3.97 3.97 0 0 1-3.969-3.969 3.97 3.97 0 0 1 3.969-3.969zm0 .793c-1.754 0-3.175 1.421-3.175 3.175s1.421 3.175 3.175 3.175 3.175-1.421 3.175-3.175-1.421-3.175-3.175-3.175zm0 .794a2.381 2.381 0 1 1 0 4.762 2.381 2.381 0 1 1 0-4.762zm0-5.556a7.94 7.94 0 0 0-7.938 7.938 7.94 7.94 0 0 0 7.938 7.938 7.94 7.94 0 0 0 7.938-7.938 7.94 7.94 0 0 0-7.938-7.938zm0 .794c1.895 0 3.712.753 5.051 2.092s2.092 3.157 2.092 5.051-.753 3.712-2.092 5.051-3.157 2.092-5.051 2.092-3.712-.753-5.051-2.092-2.092-3.157-2.092-5.051.753-3.712 2.092-5.051 3.157-2.092 5.051-2.092zM0 12.7a6.35 6.35 0 0 0-4.49 10.84A6.35 6.35 0 0 0 0 25.4a6.35 6.35 0 0 0 4.49-10.84A6.35 6.35 0 0 0 0 12.7zm0 .794c1.474 0 2.887.585 3.929 1.627s1.627 2.455 1.627 3.929-.585 2.887-1.627 3.929S1.474 24.606 0 24.606s-2.887-.585-3.929-1.627-1.627-2.455-1.627-3.929.585-2.887 1.627-3.929S-1.474 13.494 0 13.494zm0 .794c-1.263 0-2.474.502-3.368 1.395a4.76 4.76 0 0 0-1.395 3.368c0 1.263.502 2.474 1.395 3.368A4.76 4.76 0 0 0 0 23.813c1.263 0 2.474-.502 3.368-1.395a4.76 4.76 0 0 0 1.395-3.368c0-1.263-.502-2.474-1.395-3.368A4.76 4.76 0 0 0 0 14.288zm0 .794a3.97 3.97 0 0 1 2.807 6.775A3.97 3.97 0 0 1 0 23.019a3.97 3.97 0 0 1-2.806-1.162A3.97 3.97 0 0 1 0 15.081zm0 .793c-1.754 0-3.175 1.421-3.175 3.175S-1.754 22.225 0 22.225s3.175-1.421 3.175-3.175S1.754 15.875 0 15.875zm0 .794a2.38 2.38 0 0 1 1.684 4.065A2.38 2.38 0 0 1 0 21.431a2.38 2.38 0 0 1-1.684-.697 2.38 2.38 0 0 1 0-3.368A2.38 2.38 0 0 1 0 16.669zm0-5.556a7.94 7.94 0 0 0-5.613 13.551A7.94 7.94 0 0 0 0 26.988a7.94 7.94 0 0 0 5.613-2.325 7.94 7.94 0 0 0 0-11.226A7.94 7.94 0 0 0 0 11.113zm0 .794c1.895 0 3.712.753 5.051 2.092s2.092 3.157 2.092 5.051-.753 3.712-2.092 5.051S1.895 26.194 0 26.194s-3.712-.753-5.051-2.092-2.092-3.157-2.092-5.051.753-3.712 2.092-5.051S-1.895 11.906 0 11.906zM0-6.35a6.35 6.35 0 0 0-4.49 1.86A6.35 6.35 0 0 0-6.35 0a6.35 6.35 0 0 0 1.86 4.49A6.35 6.35 0 0 0 0 6.35a6.35 6.35 0 0 0 4.49-1.86A6.35 6.35 0 0 0 6.35 0a6.35 6.35 0 0 0-1.86-4.49A6.35 6.35 0 0 0 0-6.35zm0 .794c1.474 0 2.887.585 3.929 1.627S5.556-1.474 5.556 0s-.585 2.887-1.627 3.929S1.474 5.556 0 5.556s-2.887-.585-3.929-1.627S-5.556 1.474-5.556 0s.585-2.887 1.627-3.929S-1.474-5.556 0-5.556z"/><path d="M0-4.762c-1.263 0-2.474.502-3.368 1.395S-4.762-1.263-4.762 0s.502 2.474 1.395 3.368S-1.263 4.763 0 4.763s2.474-.502 3.368-1.395A4.76 4.76 0 0 0 4.763 0c0-1.263-.502-2.474-1.395-3.368A4.76 4.76 0 0 0 0-4.762zm0 .794A3.97 3.97 0 0 1 3.969 0a3.97 3.97 0 0 1-1.162 2.806A3.97 3.97 0 0 1 0 3.969a3.97 3.97 0 0 1-2.806-1.162A3.97 3.97 0 0 1-3.969 0a3.97 3.97 0 0 1 1.162-2.806A3.97 3.97 0 0 1 0-3.969zm0 .793c-1.754 0-3.175 1.421-3.175 3.175S-1.754 3.175 0 3.175 3.175 1.754 3.175 0 1.754-3.175 0-3.175zm0 .794A2.38 2.38 0 0 1 2.381 0a2.38 2.38 0 0 1-.697 1.684A2.38 2.38 0 0 1 0 2.381a2.38 2.38 0 0 1-1.684-.697A2.38 2.38 0 0 1-2.381 0a2.38 2.38 0 0 1 .697-1.684A2.38 2.38 0 0 1 0-2.381zm0-5.556A7.94 7.94 0 0 0-7.937 0a7.94 7.94 0 0 0 2.325 5.613A7.94 7.94 0 0 0 0 7.938a7.94 7.94 0 0 0 5.613-2.325A7.94 7.94 0 0 0 7.938 0a7.94 7.94 0 0 0-2.325-5.613A7.94 7.94 0 0 0 0-7.937zm0 .794c1.895 0 3.712.753 5.051 2.092S7.144-1.895 7.144 0s-.753 3.712-2.092 5.051S1.895 7.144 0 7.144s-3.712-.753-5.051-2.092S-7.144 1.895-7.144 0s.753-3.712 2.092-5.051S-1.895-7.144 0-7.144z"/><use xlink:href="#A" x="-9.525" y="-9.525"/><path d="M9.525 4.763c-1.263 0-2.474.502-3.368 1.395S4.763 8.262 4.763 9.525s.502 2.474 1.395 3.368a4.76 4.76 0 0 0 3.368 1.395c1.263 0 2.474-.502 3.368-1.395a4.76 4.76 0 0 0 1.395-3.368c0-1.263-.502-2.474-1.395-3.368a4.76 4.76 0 0 0-3.368-1.395zm0 .794a3.97 3.97 0 0 1 3.969 3.969 3.97 3.97 0 0 1-3.969 3.969 3.97 3.97 0 0 1-3.969-3.969 3.97 3.97 0 0 1 3.969-3.969zm0 .793c-1.754 0-3.175 1.421-3.175 3.175S7.771 12.7 9.525 12.7 12.7 11.279 12.7 9.525 11.279 6.35 9.525 6.35zm0 .794a2.381 2.381 0 1 1 0 4.762 2.381 2.381 0 1 1 0-4.762zm0-5.556a7.94 7.94 0 0 0-7.938 7.938 7.94 7.94 0 0 0 7.938 7.938 7.94 7.94 0 0 0 7.938-7.938 7.94 7.94 0 0 0-7.938-7.938zm0 .794c1.895 0 3.712.753 5.051 2.092s2.092 3.157 2.092 5.051-.753 3.712-2.092 5.051-3.157 2.092-5.051 2.092-3.712-.753-5.051-2.092-2.092-3.157-2.092-5.051.753-3.712 2.092-5.051S7.63 2.381 9.525 2.381z"/></g><defs><path id="A" d="M19.05 12.7a6.35 6.35 0 1 0 0 12.7 6.35 6.35 0 1 0 0-12.7zm0 .794c1.474 0 2.887.585 3.929 1.627s1.627 2.455 1.627 3.929-.585 2.887-1.627 3.929-2.455 1.627-3.929 1.627-2.887-.585-3.929-1.627-1.627-2.455-1.627-3.929.585-2.887 1.627-3.929 2.455-1.627 3.929-1.627z"/></defs></svg>
