<svg xmlns="http://www.w3.org/2000/svg" width="32" height="32" viewBox="0 0 8.467 8.467" xmlns:v="https://vecta.io/nano"><path d="M0 0h8.467v8.467H0z" fill="#202020"/><path d="M0 0v.529A.53.53 0 0 0 .374.374.53.53 0 0 0 .529 0H0zm7.937 0a.53.53 0 0 0 .155.374.53.53 0 0 0 .374.155V0h-.529zM4.233 3.704a.53.53 0 0 0-.529.529.53.53 0 0 0 .529.529.53.53 0 0 0 .529-.529.53.53 0 0 0-.529-.529zM0 7.937v.529h.529a.53.53 0 0 0-.155-.374A.53.53 0 0 0 0 7.937zm8.467 0a.53.53 0 0 0-.529.529h.529v-.529z" fill="#383838"/></svg>